<svg width="150" height="150" viewBox="0 0 150 150" fill="none" xmlns="http://www.w3.org/2000/svg">
<g clip-path="url(#clip0_1_42)">
<rect width="150" height="150" fill="white"/>
<rect width="150" height="150" fill="#040404"/>
<path d="M27 96H5.45455V26.1818H27.9545C34.7273 26.1818 40.5227 27.5795 45.3409 30.375C50.1591 33.1477 53.8523 37.1364 56.4205 42.3409C58.9886 47.5227 60.2727 53.7273 60.2727 60.9545C60.2727 68.2273 58.9773 74.4886 56.3864 79.7386C53.7955 84.9659 50.0227 88.9886 45.0682 91.8068C40.1136 94.6023 34.0909 96 27 96ZM13.9091 88.5H26.4545C32.2273 88.5 37.0114 87.3864 40.8068 85.1591C44.6023 82.9318 47.4318 79.7614 49.2955 75.6477C51.1591 71.5341 52.0909 66.6364 52.0909 60.9545C52.0909 55.3182 51.1705 50.4659 49.3295 46.3977C47.4886 42.3068 44.7386 39.1705 41.0795 36.9886C37.4205 34.7841 32.8636 33.6818 27.4091 33.6818H13.9091V88.5ZM74.4545 26.1818H84.5455L108.273 84.1364H109.091L132.818 26.1818H142.909V96H135V42.9545H134.318L112.5 96H104.864L83.0455 42.9545H82.3636V96H74.4545V26.1818Z" fill="#8A54B1"/>
<rect x="72.5" y="114" width="5" height="10" fill="#8A54B1"/>
<rect x="12.5" y="114" width="55" height="10" fill="#8A54B1"/>
<rect x="82.5" y="114" width="55" height="10" fill="#8A54B1"/>
<rect x="5" y="114" width="5" height="10" fill="#8A54B1"/>
<rect x="140" y="114" width="5" height="10" fill="#8A54B1"/>
</g>
<defs>
<clipPath id="clip0_1_42">
<rect width="150" height="150" fill="white"/>
</clipPath>
</defs>
</svg>
